<svg xmlns="http://www.w3.org/2000/svg" version="1.1" xmlns:xlink="http://www.w3.org/1999/xlink" xmlns:svgjs="http://svgjs.dev/svgjs" id="BgenPttrnSvgRootPreview" width="100%" height="100%"><defs><pattern x="0" y="0" width="1" height="1" patternUnits="userSpaceOnUse" id="BgenPttrnLayer1"><g id="PatternRootContent1"><g id="BgenPttrnLayer1background"><rect width="1" height="1" id="BgenPttrnBackground1" class="color_1 fill_color_1" fill="#ffffff"></rect></g></g></pattern><pattern x="0" y="0" width="80" height="140" patternUnits="userSpaceOnUse" id="BgenPttrnLayer2" patternTransform="matrix(0.5,0,0,0.5,0,0)"><g id="PatternRootContent2"><g id="BgenPttrnLayer2Element3"><use xlink:href="#BgenPttrnElement3" x="27.89990234375" y="-80.12001037597656" transform="translate(80, -35) scale(1) translate(-80, 35) rotate(0, 80, -35)"></use><use xlink:href="#BgenPttrnElement3" x="-52.10009765625" y="-80.12001037597656" transform="translate(0, -35) scale(1) translate(0, 35) rotate(0, 0, -35)"></use><use xlink:href="#BgenPttrnElement3" x="-12.10009765625" y="-10.120010375976562" transform="translate(40, 35) scale(1) translate(-40, -35) rotate(0, 40, 35)"></use><use xlink:href="#BgenPttrnElement3" x="-92.10009765625" y="-10.120010375976562" transform="translate(-40, 35) scale(1) translate(40, -35) rotate(0, -40, 35)"></use><use xlink:href="#BgenPttrnElement3" x="67.89990234375" y="-10.120010375976562" transform="translate(120, 35) scale(1) translate(-120, -35) rotate(0, 120, 35)"></use><use xlink:href="#BgenPttrnElement3" x="27.89990234375" y="59.87998962402344" transform="translate(80, 105) scale(1) translate(-80, -105) rotate(0, 80, 105)"></use><use xlink:href="#BgenPttrnElement3" x="-52.10009765625" y="59.87998962402344" transform="translate(0, 105) scale(1) translate(0, -105) rotate(0, 0, 105)"></use><use xlink:href="#BgenPttrnElement3" x="-12.10009765625" y="129.87998962402344" transform="translate(40, 175) scale(1) translate(-40, -175) rotate(0, 40, 175)"></use><use xlink:href="#BgenPttrnElement3" x="-12.10009765625" y="129.87998962402344" transform="translate(40, 175) scale(1) translate(-40, -175) rotate(0, 40, 175)"></use></g></g></pattern><symbol id="BgenPttrnElement3"><g class="color_4 fill_color_4" fill="#fafafa"><path d="M52.1,86.72676849365234L92.1,72.67376708984375L52.109,58.59476852416992L66.173,72.665771484375Z" transform="matrix(1,0,0,1,0,0)"></path><path d="M52.1,58.59476852416992L12.1,72.64776611328125L52.091,86.72676849365234L38.027,72.65576934814453Z" transform="matrix(1,0,0,1,0,0)"></path><path d="M20,31.12775993347168L12.17,72.79528045654297L44.359,45.20155334472656L25.141,50.3458366394043Z" transform="matrix(1,0,0,1,0,0)"></path><path d="M44.363,45.19375991821289L52.193,3.526242256164551L20.004,31.119966506958008L39.222,25.975685119628906Z" transform="matrix(1,0,0,1,0,0)"></path><path d="M84.2,31.127769470214844L52.03,3.5132522583007812L59.833,45.185977935791016L64.987,25.970693588256836Z" transform="matrix(1,0,0,1,0,0)"></path><path d="M59.837,45.19377136230469L92.007,72.80828857421875L84.205,31.135562896728516L79.051,50.35084533691406Z" transform="matrix(1,0,0,1,0,0)"></path></g></symbol></defs><rect width="100%" height="100%" id="BgenPttrnRctLayer1" fill="url(&quot;#BgenPttrnLayer1&quot;)"></rect><rect width="100%" height="100%" id="BgenPttrnRctLayer2" fill="url(&quot;#BgenPttrnLayer2&quot;)"></rect></svg>