<svg xmlns="http://www.w3.org/2000/svg" xmlns:xlink="http://www.w3.org/1999/xlink" viewBox="0 0 101.13 127.9"><defs><style>.cls-1{isolation:isolate;}.cls-14,.cls-2,.cls-23{fill:#fff;}.cls-3{fill:url(#Безымянный_градиент_162);}.cls-4{fill:#925e90;}.cls-10,.cls-11,.cls-12,.cls-13,.cls-14,.cls-17,.cls-18,.cls-20,.cls-21,.cls-22,.cls-23,.cls-24,.cls-25,.cls-26,.cls-27,.cls-28,.cls-29,.cls-30,.cls-31,.cls-32,.cls-33,.cls-34,.cls-35,.cls-36,.cls-37,.cls-38,.cls-39,.cls-4,.cls-40,.cls-41,.cls-42,.cls-43,.cls-44,.cls-9{fill-rule:evenodd;}.cls-15,.cls-16,.cls-22,.cls-24,.cls-25,.cls-26,.cls-27,.cls-30,.cls-31,.cls-32,.cls-33,.cls-34,.cls-35,.cls-36,.cls-39,.cls-4,.cls-40,.cls-41,.cls-42,.cls-43,.cls-9{mix-blend-mode:multiply;}.cls-15,.cls-22,.cls-4,.cls-42,.cls-43{opacity:0.5;}.cls-5{fill:url(#Безымянный_градиент_151);}.cls-6{fill:url(#Безымянный_градиент_11);}.cls-7{fill:url(#Безымянный_градиент_19);}.cls-8{fill:#b84562;}.cls-16,.cls-24,.cls-25,.cls-26,.cls-27,.cls-30,.cls-31,.cls-32,.cls-33,.cls-34,.cls-35,.cls-36,.cls-39,.cls-40,.cls-41,.cls-9{opacity:0.58;}.cls-9{fill:url(#Безымянный_градиент_133);}.cls-10{fill:url(#Безымянный_градиент_40);}.cls-11{fill:#6b54b3;}.cls-12{fill:#6b224f;}.cls-13{fill:url(#Безымянный_градиент_40-2);}.cls-15,.cls-22{fill:#d87290;}.cls-16{fill:url(#Безымянный_градиент_133-2);}.cls-17{fill:url(#Безымянный_градиент_40-3);}.cls-18{fill:url(#Безымянный_градиент_40-4);}.cls-19{fill:url(#Безымянный_градиент_19-2);}.cls-20{fill:url(#Безымянный_градиент_40-5);}.cls-21{fill:url(#Безымянный_градиент_40-6);}.cls-23,.cls-29,.cls-45,.cls-46{mix-blend-mode:soft-light;}.cls-24{fill:url(#Безымянный_градиент_23);}.cls-25{fill:url(#Безымянный_градиент_23-2);}.cls-26{fill:url(#Безымянный_градиент_29);}.cls-27{fill:url(#Безымянный_градиент_23-3);}.cls-28{fill:url(#Безымянный_градиент_40-7);}.cls-29{fill:#f5ddc4;opacity:0.97;}.cls-30{fill:url(#Безымянный_градиент_29-2);}.cls-31{fill:url(#Безымянный_градиент_29-3);}.cls-32{fill:url(#Безымянный_градиент_29-4);}.cls-33{fill:url(#Безымянный_градиент_29-5);}.cls-34{fill:url(#Безымянный_градиент_29-6);}.cls-35{fill:url(#Безымянный_градиент_29-7);}.cls-36{fill:url(#Безымянный_градиент_133-3);}.cls-37{fill:url(#Безымянный_градиент_40-8);}.cls-38{fill:url(#Безымянный_градиент_6);}.cls-39{fill:url(#Безымянный_градиент_243);}.cls-40{fill:url(#Безымянный_градиент_29-8);}.cls-41{fill:url(#Безымянный_градиент_29-9);}.cls-42{fill:#a97290;}.cls-43{fill:#9572a9;}.cls-44{fill:#845c9c;}.cls-45{fill:#4fffff;}.cls-46{fill:#f5ffff;}.cls-47{fill:#ab89c0;}.cls-48{fill:#aba7cd;}</style><radialGradient id="Безымянный_градиент_162" cx="69.25" cy="22.34" r="31" gradientUnits="userSpaceOnUse"><stop offset="0" stop-color="#ff3143"/><stop offset="1" stop-color="#e30a47"/></radialGradient><linearGradient id="Безымянный_градиент_151" x1="40.34" y1="90.44" x2="40.34" y2="20.2" gradientUnits="userSpaceOnUse"><stop offset="0.02" stop-color="#ffb880"/><stop offset="1" stop-color="#ff8777"/></linearGradient><linearGradient id="Безымянный_градиент_11" x1="74.09" y1="68.44" x2="74.09" y2="47.99" gradientUnits="userSpaceOnUse"><stop offset="0.02" stop-color="#ffb880"/><stop offset="0.56" stop-color="#ff9179"/><stop offset="1" stop-color="#ff6054"/></linearGradient><linearGradient id="Безымянный_градиент_19" x1="27.6" y1="59.9" x2="27.6" y2="46.05" gradientUnits="userSpaceOnUse"><stop offset="0" stop-color="#ff6054"/><stop offset="1" stop-color="#ff9179"/></linearGradient><linearGradient id="Безымянный_градиент_133" x1="42.61" y1="50.79" x2="42.61" y2="36.53" gradientUnits="userSpaceOnUse"><stop offset="0" stop-color="#ffeadb"/><stop offset="0.99" stop-color="#c245ba"/></linearGradient><radialGradient id="Безымянный_градиент_40" cx="41.75" cy="45.45" r="3.58" gradientUnits="userSpaceOnUse"><stop offset="0.98" stop-color="#e4deec"/><stop offset="1" stop-color="#dedbeb"/></radialGradient><radialGradient id="Безымянный_градиент_40-2" cx="24.05" cy="43.23" r="2.59" xlink:href="#Безымянный_градиент_40"/><linearGradient id="Безымянный_градиент_133-2" x1="48.02" y1="65.02" x2="48.02" y2="18.69" xlink:href="#Безымянный_градиент_133"/><radialGradient id="Безымянный_градиент_40-3" cx="52.49" cy="29.18" r="24.63" xlink:href="#Безымянный_градиент_40"/><radialGradient id="Безымянный_градиент_40-4" cx="36.81" cy="84.14" r="34.66" xlink:href="#Безымянный_градиент_40"/><linearGradient id="Безымянный_градиент_19-2" x1="27.1" y1="68.24" x2="27.1" y2="61.79" xlink:href="#Безымянный_градиент_19"/><radialGradient id="Безымянный_градиент_40-5" cx="42.92" cy="39.01" r="7.36" xlink:href="#Безымянный_градиент_40"/><radialGradient id="Безымянный_градиент_40-6" cx="22.88" cy="35.41" r="4.5" xlink:href="#Безымянный_градиент_40"/><linearGradient id="Безымянный_градиент_23" x1="22.88" y1="40" x2="22.88" y2="31.17" gradientUnits="userSpaceOnUse"><stop offset="0.01" stop-color="#c26aba"/><stop offset="1" stop-color="#ffeadb"/></linearGradient><linearGradient id="Безымянный_градиент_23-2" x1="42.92" y1="44.85" x2="42.92" y2="33.3" xlink:href="#Безымянный_градиент_23"/><linearGradient id="Безымянный_градиент_29" x1="52.49" y1="51.84" x2="52.49" y2="8.54" gradientUnits="userSpaceOnUse"><stop offset="0.01" stop-color="#9775ba"/><stop offset="1" stop-color="#ffeadb"/></linearGradient><linearGradient id="Безымянный_градиент_23-3" x1="47.7" y1="51.84" x2="47.7" y2="17.98" xlink:href="#Безымянный_градиент_23"/><radialGradient id="Безымянный_градиент_40-7" cx="85.26" cy="76.02" r="7.96" xlink:href="#Безымянный_градиент_40"/><linearGradient id="Безымянный_градиент_29-2" x1="77.15" y1="76.75" x2="93.38" y2="76.75" xlink:href="#Безымянный_градиент_29"/><linearGradient id="Безымянный_градиент_29-3" x1="19.13" y1="59" x2="19.21" y2="59" xlink:href="#Безымянный_градиент_29"/><linearGradient id="Безымянный_градиент_29-4" x1="43.32" y1="121.82" x2="43.32" y2="48.21" xlink:href="#Безымянный_градиент_29"/><linearGradient id="Безымянный_градиент_29-5" x1="11.81" y1="94.78" x2="11.81" y2="62.77" xlink:href="#Безымянный_градиент_29"/><linearGradient id="Безымянный_градиент_29-6" x1="49.49" y1="121.82" x2="49.49" y2="46.45" xlink:href="#Безымянный_градиент_29"/><linearGradient id="Безымянный_градиент_29-7" x1="23.48" y1="98.55" x2="36.27" y2="98.55" xlink:href="#Безымянный_градиент_29"/><linearGradient id="Безымянный_градиент_133-3" x1="58.66" y1="61.42" x2="58.66" y2="41.8" xlink:href="#Безымянный_градиент_133"/><radialGradient id="Безымянный_градиент_40-8" cx="61.42" cy="41.01" r="8.98" xlink:href="#Безымянный_градиент_40"/><linearGradient id="Безымянный_градиент_6" x1="43.37" y1="37.61" x2="43.37" y2="14.92" gradientUnits="userSpaceOnUse"><stop offset="0" stop-color="#e4deec"/><stop offset="1" stop-color="#fff"/></linearGradient><linearGradient id="Безымянный_градиент_243" x1="43.32" y1="56.98" x2="64.92" y2="56.98" gradientUnits="userSpaceOnUse"><stop offset="0" stop-color="#ffeadb"/><stop offset="0.99" stop-color="#9775ba"/></linearGradient><linearGradient id="Безымянный_градиент_29-8" x1="23.07" y1="34.56" x2="67.67" y2="34.56" xlink:href="#Безымянный_градиент_29"/><linearGradient id="Безымянный_градиент_29-9" x1="41.75" y1="21.48" x2="51.64" y2="21.48" xlink:href="#Безымянный_градиент_29"/></defs><g class="cls-1"><g id="Слой_2" data-name="Слой 2"><g id="Мороз"><path class="cls-2" d="M96.88,80c-1.8,7.5-12,8.91-18.37,6.13S76.4,73,75,72.14s-4,.33-4.23,2.78S74.63,91,71.84,98.55s-15.24,7.32-17.19,9.88.64,7.9-2.16,11.91S44.14,130.13,33,127,22,117.55,23.07,113.66,16.14,110.1,5.46,105s-3.3-44.57,2-52,10.27-9.1,11-10.67-3.8-4.62-4.21-8.44,4.72-6.1,4.94-7.59S17.49,12.46,25.34,5.58s37.15-7.22,47.46-2c12.57,6.35,28.87,25.94,28.31,41S92.76,65.88,93.38,69,98.33,74,96.88,80Z"/><path class="cls-3" d="M90.55,65c-1.61,3.48-3,5.76-3,5.76L84,70.11s-5.62-15.77-9.94-20.45c0,0-1.68-2.64-4.28-6.64C62.86,32.34,49.26,12,43.38,6.67c0,0,12.33-3.59,21.54-1.7S92.05,28.68,95.28,40.48C97.37,48.13,93.51,58.59,90.55,65Z"/><path class="cls-4" d="M79.56,58.21s5.91-14.29,5.81-24.91l-6.86,8.5L72.8,49.53Z"/><path class="cls-4" d="M90.55,65c-1.61,3.48-3,5.76-3,5.76L84,70.11s-5.62-15.77-9.94-20.45c0,0-1.68-2.64-4.28-6.64L62.42,12.89s15.27,6.43,18,26.3l4.9-5.89s6.13,7.12,6.23,14.39A159.1,159.1,0,0,1,90.55,65Z"/><path class="cls-5" d="M67.67,67.19c-2.11,6.67-12.52,16.53-21.2,20s-22.88,6.18-27-3.34S11.57,62.6,12.32,56.17c.55-4.63,5.2-8.26,7.93-10.65,1.05-.93,1.81-1.67,1.93-2.21A31.81,31.81,0,0,0,22,37c-.22-2.27-.46-4.25-.46-4.25.85-2.75,3.48-5.46,5.87-7.47a41,41,0,0,1,4.19-3.07l.21-.14a32.69,32.69,0,0,1,19.59-.75c9.91,2.76,16.79,9.93,16.3,16.11,0,.17,0,.34,0,.5a66.06,66.06,0,0,0,0,7.44C68,53.55,69.25,62.21,67.67,67.19Z"/><path class="cls-6" d="M67.67,51.84s6.82-4.81,10-3.68c4.76,1.67,4.34,7.16,3.4,11-.82,3.3-4,8.23-7.07,9.07s-6.35-1.39-6.35-1.39S65,58.14,67.67,51.84Z"/><path class="cls-7" d="M37.24,54.29a1.1,1.1,0,0,1-.09.52l-.08.17a2.17,2.17,0,0,1-1.84.91c-1,0-2.95-.57-5.23,1.51s-6.07,2.5-6.07,2.5c-5.5-1.27-6.83-7.23-5.51-9.29l0-.07a1.47,1.47,0,0,1,.67-.55c2.34-.89,6.35-2.89,6.9-3.94,0,0,3.94.1,6.37,1.61S37.21,53.33,37.24,54.29Z"/><path class="cls-8" d="M30,57.4A4.7,4.7,0,0,1,31.84,55a1.52,1.52,0,0,1,2.15.79S32.52,55.37,30,57.4Z"/><path class="cls-9" d="M51.09,44.85c.51,1-2.33,3.24-6.37,4.28s-6.41,1.8-7.91,1.63S33,44.87,34.67,36.53C34.67,36.53,48.53,39.86,51.09,44.85Z"/><path class="cls-8" d="M37.39,48.45c.11.62,3.1-.54,5.63-.74s3.51-.08,3.81-.28-2.5-4.23-5.56-5S37,46,37.39,48.45Z"/><path class="cls-10" d="M46,47c-.5.4-1.61.37-3.93.73-.42.06-.82.13-1.17.2-1.58.29-2.51.54-3,0-.79-.86-.31-4.72,2.28-5.15a2.56,2.56,0,0,1,1,.05C43.56,43.29,46.38,46.61,46,47Z"/><path class="cls-11" d="M46,47c-.5.4-1.61.37-3.93.73-.42.06-.82.13-1.17.2-1.72-1.4-.74-5.16-.74-5.16C42.72,42.3,46.44,46.57,46,47Z"/><path class="cls-12" d="M46,47c-.5.4-1.61.37-3.93.73-2-1.17-1-4.68-.92-4.91C43.56,43.29,46.38,46.61,46,47Z"/><path class="cls-12" d="M38.41,43.59s.85-.94,3.34-.2,5.08,4,5.08,4a9.27,9.27,0,0,0-5-4.78C38.33,41.48,38.41,43.59,38.41,43.59Z"/><path class="cls-8" d="M26.23,46c-.34,1.08-3.53.58-4.16-.52s.55-6,1.53-6.41S27.1,43.29,26.23,46Z"/><path class="cls-13" d="M25.93,45.67c-.05.23-.28.38-.6.47a2.65,2.65,0,0,1-.67.09c-1.09.05-2.52-.35-2.64-1-.2-1.07.24-4.56,1.47-4.93a1.46,1.46,0,0,1,1.18.22,2.78,2.78,0,0,1,.27.21C25.81,41.46,26.48,43.12,25.93,45.67Z"/><path class="cls-11" d="M25.93,45.67c-.08.37-.62.54-1.27.56-1.33-1.26-.33-5.74-.33-5.74h.34C25.66,41.13,26.55,42.86,25.93,45.67Z"/><path class="cls-12" d="M25.93,45.67c-.05.23-.28.38-.6.47-1.5-1.2-.39-5.44-.39-5.44C25.81,41.46,26.48,43.12,25.93,45.67Z"/><path class="cls-12" d="M22.57,40.88s.44-1.08,1.76-.39c.91.49,2.08,4.11,2.08,4.11s0-3.75-2.26-5.34C22.63,38.19,22.57,40.88,22.57,40.88Z"/><circle class="cls-2" cx="39.86" cy="45.52" r="0.49"/><path class="cls-14" d="M24.45,43.42a.48.48,0,0,1-.48.49.49.49,0,0,1-.49-.49.48.48,0,0,1,.49-.48A.47.47,0,0,1,24.45,43.42Z"/><path class="cls-15" d="M68.06,51.84s-.78,3.69,0,4.26,8-3.64,10.17-3.39,1.57,5.84.7,8.18a5.39,5.39,0,0,1-2.32,3,7,7,0,0,0,2-3.71c.16-2-.84-4.78-2.3-4.9a6.7,6.7,0,0,0-3.21.93,13.33,13.33,0,0,1,1.33,4.18c.5,2.8-4.07,3.55-4.77,3.21s.56-2.17.6-3.29-2.47-1.81-3.7-.45C66.52,59.9,67.23,53.48,68.06,51.84Z"/><path class="cls-15" d="M67.1,55.76a2,2,0,0,0,2.16.17c1.42-.56,7.17-3.4,9.25-3.15,0,0-4.58,2.08-5.45,3.47S70.4,59,68.93,58.76,67.1,55.76,67.1,55.76Z"/><path class="cls-16" d="M26.41,26.57s5-1.45,12,1.89a22.93,22.93,0,0,1,10,9.93l-1.59.7L36,33.26s-1.88,2.65-2,9.14,2.21,8.26,3.26,8.54,7.27-2.5,12.28-2.31,3.12,10,.7,11.88-9.88-.29-9.88-.29L44.13,65l17.12-2.09L69.62,40,50.23,20.2,38.41,18.69S28.22,23.19,26.41,26.57Z"/><path class="cls-15" d="M27.59,44.2c-.42,1.66-2.87,4-4.71,4s-2.63-2.68-2.63-2.68c1.05-.93,1.81-1.67,1.93-2.21A31.81,31.81,0,0,0,22,37l5.32,2S28,42.52,27.59,44.2Z"/><path class="cls-17" d="M78.65,44.76c-1.15,3-10,6.84-10.57,7.08h0S61.43,31.19,55.32,23.31,26,21.66,26,21.66s.56-9.77,4.78-13.12h0C35.06,5.19,51.64,5.35,64.11,14a29.86,29.86,0,0,1,7,6.89s0,0,0,0C77.87,30.09,79.72,42,78.65,44.76Z"/><path class="cls-18" d="M39.9,117.67c1.4.94,7-.56,8-1.73s2.18-3.56,1.46-3.73-5.46,2.11-5.46,2.11c.06-3.63,4.12-4.94,5.62-4.72,1.29.19,2.34,1.94,2.28,3.21a1.54,1.54,0,0,1-.11.58c-.5,1.22-5.31,8-9.82,8.39a16.74,16.74,0,0,1-5-.46l-.09,0a26.63,26.63,0,0,1-2.74-.78c-3.09-1-5.77-2.58-6.13-4-.67-2.67,1.89-7.57.55-8.9s-7.57-1.11-11.46-2.23S3.73,96.24,5.73,79.55,12.27,56.8,12.27,56.8c4.41-.28,5.09,1.23,6.86,2.18h0l.07,0,.45.21a8.46,8.46,0,0,0,3.9.44c6.51-.46,12.77-.84,16.78.54a24.94,24.94,0,0,0,15.52.25,6.85,6.85,0,0,0,1.86-1c3.27-2.39,6.06-7.67,7.48-10.73.59-1.27,1-2.15,1-2.28v0l.61,1.76,1.24,3.63a26,26,0,0,0-.39,15S69.34,95,66.49,97.58,55.74,103.42,50,105.84,38.51,116.73,39.9,117.67Z"/><path class="cls-19" d="M18.48,61.79a23.07,23.07,0,0,0,2.91,2.6c1.53,1.12,7.24,1.3,9.72-.09s4.62-2.51,4.62-2.51a13.14,13.14,0,0,0-2.92,2.14c-.75.95-4.68,4.79-7.85,4.26S20.62,63.66,18.48,61.79Z"/><path class="cls-20" d="M50.59,44.66c-1.82-1.11-9.9-3.2-12-3.55a4.45,4.45,0,0,1-3-2.06,6.56,6.56,0,0,0-.15,1.31c-2.79-2.16.16-6.63.46-7.06a.16.16,0,0,0,0,0,14.31,14.31,0,0,1,11.41,4,0,0,0,0,1,0,0c.37.34.72.7,1,1.07C51.54,41.85,52.41,45.76,50.59,44.66Z"/><path class="cls-21" d="M27.24,40a18.76,18.76,0,0,1-4-.62,3.75,3.75,0,0,1-2.58-2.64A2.69,2.69,0,0,0,21.73,39s-3.67-.67-3.21-4.18a4.44,4.44,0,0,1,2.69-3.65l0,0a4.89,4.89,0,0,1,1-.32,7.68,7.68,0,0,1,2.79,2.62C26.84,36.1,27.48,39.53,27.24,40Z"/><path class="cls-22" d="M37.15,54.81l-.08.17a2.17,2.17,0,0,1-1.84.91c-1,0-2.95-.57-5.23,1.51s-6.07,2.5-6.07,2.5c-5.5-1.27-6.83-7.23-5.51-9.29l0-.07s.11,1.88,5,2.22,9-.93,10.83-.43A5.09,5.09,0,0,1,37.15,54.81Z"/><path class="cls-22" d="M19.12,51.51s.68,2.13,3.76,2.6,8-1.48,10.07-1.89c0,0-3.23.16-6.54.58A12.06,12.06,0,0,1,19.12,51.51Z"/><path class="cls-23" d="M29.13,51.67c-.68-.47.12-1.32.85-1.42s2.59.67,2.57,1.09S29.67,52,29.13,51.67Z"/><path class="cls-24" d="M27.24,40a18.76,18.76,0,0,1-4-.62,3.75,3.75,0,0,1-2.58-2.64A2.69,2.69,0,0,0,21.73,39s-3.67-.67-3.21-4.18a4.44,4.44,0,0,1,2.69-3.65c-.32.2-2.39,1.55-1.66,3.17S24,37.4,25.34,37s-.29-3.6-.29-3.6h0C26.84,36.1,27.48,39.53,27.24,40Z"/><path class="cls-25" d="M50.59,44.66c-1.82-1.11-9.9-3.2-12-3.55a4.45,4.45,0,0,1-3-2.06,6.56,6.56,0,0,0-.15,1.31c-2.79-2.16.16-6.63.46-7.06a3.86,3.86,0,0,0,1.54,5.18c3.25,2.21,10.64,2.75,11.18,2.5s-1.11-3.31-1.29-3.65c.37.34.72.7,1,1.07C51.54,41.85,52.41,45.76,50.59,44.66Z"/><path class="cls-26" d="M78.65,44.76c-1.19,3.12-10.59,7.08-10.59,7.08S61.43,31.19,55.32,23.31,26,21.66,26,21.66s.56-9.77,4.78-13.12c-.17.23-3.59,4.83-1.88,6.38s14.8,1,25.39,5.28S69.54,35,73.12,34.38s-.59-10.42-2-13.47C77.87,30.09,79.72,42,78.65,44.76Z"/><path class="cls-27" d="M69.34,50.24a2.14,2.14,0,0,1-1.26,1.6h0S61.43,31.19,55.32,23.31,26,21.66,26,21.66c1.86-3.36,18.34-6,27.61-.49S69.6,49,69.34,50.24Z"/><path class="cls-28" d="M92,81.6c-3.28,3.34-12.74,2.9-14.35-1.16-1.33-3.33.15-8.21,3.4-10.73a7.68,7.68,0,0,1,2.38-1.27c1.31-.44,5.26-.3,6.57.75a9.08,9.08,0,0,1,2.05,3h0a.11.11,0,0,0,0,.05C93.42,75.22,94.2,79.35,92,81.6Z"/><path class="cls-29" d="M44.61,6.34A54.54,54.54,0,0,1,64.92,13.6C75.35,19.86,69,8.85,66.83,6.34S52.69,3.59,44.61,6.34Z"/><path class="cls-30" d="M92,81.6c-3.28,3.34-12.74,2.9-14.35-1.16-1.33-3.33.15-8.21,3.4-10.73l.06,0s-2.49,5.42,0,8.65,9,3.62,10.51,1.5c1.39-2,.57-7.12.45-7.53C93.42,75.22,94.2,79.35,92,81.6Z"/><path class="cls-31" d="M19.21,59,19.13,59h0Z"/><path class="cls-32" d="M50,105.84c5.76-2.42,13.65-5.67,16.51-8.26s1.18-30.72,1.18-30.72a26,26,0,0,1,.39-15l-1.24-3.63-1.62.54c-1.68,3.62-5.28,10.36-9.34,11.72a24.94,24.94,0,0,1-15.52-.25c-4-1.38-10.27-1-16.78-.54a8.46,8.46,0,0,1-3.9-.44,12.23,12.23,0,0,0,1.78.66c1.28.34,11.11-.57,14.29,0s8,3.19,8.34,3.36c-.35-.1-6.62-1.85-8.34-1.47,0,0-6.45,5.63-9.6,5.57s-7.37-5.23-7.65-5.55a27.76,27.76,0,0,1,3.4,6.63c.85,3,5.22,5.87,5.22,5.87a20.45,20.45,0,0,1,5.45-7.79c3.73-3.09,5.86-3.59,5.86-3.59s-2,10.16,0,16.95S25.67,92.24,24,97s8.82,7.46,10.35,9.69-3.66,8.52-3.6,10.46,6.1,4.12,6.1,4.12l.09,0a16.74,16.74,0,0,0,5,.46c4.51-.41,9.32-7.17,9.82-8.39s-.67-3.57-2.17-3.79-5.56,1.09-5.62,4.72c0,0,4.73-2.27,5.46-2.11s-.4,2.57-1.46,3.73-6.61,2.67-8,1.73S44.21,108.27,50,105.84ZM56.15,65c1,4.32,8,7.26,8.77,12.69.69,5-3.66,8-4.33,8.46.44-.36,2.3-2.25-1.43-7.46C55,72.87,56.15,65,56.15,65ZM32.94,96.13a8,8,0,0,0-.4,6.34c-.27-.13-5-2.66-3.67-6.45s14-9.57,11.47-15.81-.48-16.28-.48-16.28C46.78,75.65,56.1,75.09,53.65,83.21S34.62,92.34,32.94,96.13Z"/><path class="cls-33" d="M18,62.77s-.86,3.08-5,7.09S4.22,81.22,6.1,90.44l1.31,4.34a23.61,23.61,0,0,1,3.83-16A44.17,44.17,0,0,0,18,62.77Z"/><path class="cls-34" d="M39.9,117.67c1.4.94,7-.56,8-1.73s2.18-3.56,1.46-3.73a5.58,5.58,0,0,1,2.44.6,1.54,1.54,0,0,1-.11.58c-.5,1.22-5.31,8-9.82,8.39a16.74,16.74,0,0,1-5-.46l-.09,0a26.63,26.63,0,0,1-2.74-.78c-2-1.41-3.25-3-3.24-4,0-2.14,10.51-19.75,26.33-26C68,86.1,66.84,76,63.5,71.45s-5.78-12-5.78-12l8.48-13v0l.61,1.76,1.24,3.63a26,26,0,0,0-.39,15S69.34,95,66.49,97.58,55.74,103.42,50,105.84,38.51,116.73,39.9,117.67Z"/><path class="cls-22" d="M35.73,61.79s5.36-.22,8.34,1.47c0,0-7-1.67-12.3,1.76C31.77,65,34.25,62.28,35.73,61.79Z"/><path class="cls-22" d="M18.48,61.81s.15,2.7.69,3.21a6.67,6.67,0,0,0,2.38.79A42.18,42.18,0,0,0,18.48,61.81Z"/><path class="cls-23" d="M26.41,66.36c-.44.45,2.11.45,3.18-.17s1.33-1.23,1.24-1.32A25.29,25.29,0,0,0,26.41,66.36Z"/><path class="cls-35" d="M32.54,102.47s-5.57-2-3.67-6.45,6.55-8.23,7.4-10.1a69.31,69.31,0,0,1-9.41,7.66c-5.38,3.61-3.43,6.45-.45,8.26s6.81,3.14,7.9,4.87-.81,4.46-.81,4.46S38.36,106.8,32.54,102.47Z"/><path class="cls-23" d="M48,50.24c-1.13,0-2.8.69-2.55,1.27s3.78-.14,4-.52S49.22,50.21,48,50.24Z"/><path class="cls-36" d="M59.49,41.8a69.27,69.27,0,0,0-5.44,9.92,50,50,0,0,0-2.41,9.7,18.55,18.55,0,0,0,7.24-2.91c2.89-2.23,6.8-10.82,6.8-10.82S62.11,46.69,59.49,41.8Z"/><path class="cls-37" d="M68.06,51.84s-11.24-1-12.91-6.81a14.84,14.84,0,0,1,.27-7.44A29.48,29.48,0,0,1,57,33.1c.59-1.39,1.06-2.27,1.06-2.27l1.41-.65c.28.46.57,1,.85,1.51s.71,1.41,1.06,2.17.58,1.31.87,2c.57,1.35,1.12,2.75,1.63,4.14v0l1,2.68C66.51,47.67,68.06,51.84,68.06,51.84Z"/><path class="cls-38" d="M64.92,24.45a.73.73,0,0,0,0,.08,24.23,24.23,0,0,1-3.56,9.33,8.09,8.09,0,0,1-5.92,3.73c-7.68.58-10.2-8.38-10.2-8.38C39,28,33.34,22.72,33.34,22.72c-5.76,1.32-10.27,7.1-10.27,7.1-2.13-3.48-2-13.64,4.12-12.55a27.19,27.19,0,0,0,5,.48h0a9.48,9.48,0,0,0,3.36-.47h0s.66-3.42,3.83-2a15.52,15.52,0,0,0,2.3.78,33.85,33.85,0,0,0,5.8,1s1.51-1.17,2.18-.84A62.72,62.72,0,0,1,54.4,21a6,6,0,0,0,1.92,3.42C58,25.86,64.92,24.45,64.92,24.45Z"/><path class="cls-39" d="M43.32,60.91a37.55,37.55,0,0,0,11.46,1.86c6-.09,10.14-11.41,10.14-11.41L64,51.19s-4.08,7.81-7.45,9C51.37,62.12,43.32,60.91,43.32,60.91Z"/><path class="cls-40" d="M67.67,51.84s-10.85-1-12.52-6.81a14.84,14.84,0,0,1,.27-7.44c-7.68.58-10.2-8.38-10.2-8.38C39,28,33.34,22.72,33.34,22.72c-5.76,1.32-10.27,7.1-10.27,7.1s.8-5.43,3-8.16a14.2,14.2,0,0,1,6.18-3.91h0l3.37-.48h0c0,.16-1.49,4.21,0,6.26S46,28.24,51.64,28L48,28.73s1.9,4.47,8.13,4.43A4.29,4.29,0,0,0,57,33.1a6.93,6.93,0,0,0,3.32-1.41c3-2.3,4.43-6.55,4.62-7.16a24.23,24.23,0,0,1-3.56,9.33c.29.64.58,1.31.87,2C59.77,36.65,57,38,56.54,40c-.77,3.7,6.68,7.21,7.52,6.94s-.13-6.36-.21-6.9l1,2.68C66.51,47.67,67.67,51.84,67.67,51.84Z"/><path class="cls-41" d="M47.56,17s.07,6.54,4.08,9.88c0,0-8.44-6.22-9.89-10.85Z"/><path class="cls-42" d="M55.42,37.59s4.1-1.33,5.92-3.73l.87,2S54.69,37.53,55.15,45C55.15,45,53.86,42.38,55.42,37.59Z"/><path class="cls-43" d="M56.54,60.23A103.69,103.69,0,0,0,63,70.75c3.77,5.35,5.11,16,5.11,16s.41-14.85-.45-19.86-1.29-9.6.39-15L64,51.19S61.23,57.89,56.54,60.23Z"/><path class="cls-43" d="M68.06,51.84s-8.5-.07-12.46-5.7c0,0,6.74,2.57,10.6.33Z"/><path class="cls-44" d="M54.65,41.85s.08,2.88,4,6.36a16.4,16.4,0,0,0,9.4,3.63S54.34,53,54.65,41.85Z"/><path class="cls-45" d="M72,9.93S84.64,22.36,90.57,32s4.17,17.53,4.17,17.53,0-8.1-8.43-18.74A195.27,195.27,0,0,1,72,9.93Z"/><path class="cls-46" d="M27.73,16.6S30.86,11,34.31,9.34,46.29,8,46.29,8,37.14,5.94,32.8,7.87,27.73,16.6,27.73,16.6Z"/><path class="cls-45" d="M12.74,56.1a14.5,14.5,0,0,1,5.45-8.41S14.07,52.81,12.74,56.1Z"/><path class="cls-45" d="M12.23,58.21S5.59,68.86,5.67,80.63C5.67,80.63,12.11,64.18,12.23,58.21Z"/><path class="cls-45" d="M39.23,114.66A22.59,22.59,0,0,1,48,103.5c8-5,12.86-5.5,16.9-9.85,2-2.2,2.18-13,2.18-13s1.1,13.42-1.18,16.28-16.4,7.34-20.29,10.46A31,31,0,0,0,39.23,114.66Z"/><path class="cls-46" d="M48,6.52s11.27-2.18,18.81-.18C66.83,6.34,54.62,6.48,48,6.52Z"/><path class="cls-47" d="M33.34,22.72A31.46,31.46,0,0,0,29,21.19a11.71,11.71,0,0,0-2.25-.36,3.53,3.53,0,0,0-2.1.42A3.44,3.44,0,0,0,23.41,23a9.24,9.24,0,0,0-.47,2.22,21.59,21.59,0,0,0,.13,4.61,15.39,15.39,0,0,1-.51-4.64A8.18,8.18,0,0,1,23,22.84a3.89,3.89,0,0,1,1.37-2,4,4,0,0,1,2.4-.44,9.52,9.52,0,0,1,2.32.44A19.93,19.93,0,0,1,33.34,22.72Z"/><path class="cls-48" d="M41.75,16.05a7,7,0,0,0-3.09,1A3.18,3.18,0,0,0,37,19.55a7.9,7.9,0,0,0,2.4,5.72,10.35,10.35,0,0,0,5.69,2.78,23.35,23.35,0,0,0,6.52,0,19.89,19.89,0,0,1-6.58.42,10.43,10.43,0,0,1-6-2.81,8.12,8.12,0,0,1-2.43-6.11,3.5,3.5,0,0,1,1.89-2.71A7.2,7.2,0,0,1,41.75,16.05Z"/><path class="cls-48" d="M42.08,16.9a6.68,6.68,0,0,0,.11,3.63,10,10,0,0,0,.68,1.69A4.4,4.4,0,0,0,44,23.55a11.92,11.92,0,0,0,3.22,1.69,30.64,30.64,0,0,0,3.58,1,16.73,16.73,0,0,1-3.7-.67,10.24,10.24,0,0,1-3.42-1.66,5,5,0,0,1-1.25-1.51,7.86,7.86,0,0,1-.63-1.8A5.87,5.87,0,0,1,42.08,16.9Z"/><path class="cls-48" d="M45.22,29.21a12.53,12.53,0,0,0,2.16,2.54,11.5,11.5,0,0,0,2.7,1.91,9.09,9.09,0,0,0,3.13,1,8.89,8.89,0,0,0,1.63.06,7,7,0,0,0,1.58-.34,8.2,8.2,0,0,0,1.48-.67,9.62,9.62,0,0,0,1.33-1,15.66,15.66,0,0,0,2.26-2.41,23.5,23.5,0,0,0,1.86-2.77,26.32,26.32,0,0,0,1.55-3,24.11,24.11,0,0,1-3.1,6A14.38,14.38,0,0,1,59.52,33a11.4,11.4,0,0,1-1.37,1,8,8,0,0,1-1.57.73,7,7,0,0,1-1.71.34,9,9,0,0,1-1.72-.08A8.7,8.7,0,0,1,49.9,34,12,12,0,0,1,45.22,29.21Z"/><path class="cls-48" d="M48.43,28.65a29.5,29.5,0,0,0,7.26-.94,23.51,23.51,0,0,0,3.46-1.18,26.57,26.57,0,0,0,3.27-1.68,15.27,15.27,0,0,1-3.11,2,16.89,16.89,0,0,1-3.49,1.31A18.63,18.63,0,0,1,48.43,28.65Z"/></g></g></g></svg>