<svg xmlns="http://www.w3.org/2000/svg" xmlns:xlink="http://www.w3.org/1999/xlink" viewBox="0 0 130.55 171.58"><defs><style>.cls-1{isolation:isolate;}.cls-2{fill:#fff;}.cls-10,.cls-11,.cls-12,.cls-14,.cls-15,.cls-16,.cls-17,.cls-18,.cls-19,.cls-20,.cls-21,.cls-22,.cls-25,.cls-26,.cls-27,.cls-28,.cls-29,.cls-3,.cls-4,.cls-5,.cls-9{fill-rule:evenodd;}.cls-3{fill:url(#Безымянный_градиент_49);}.cls-32,.cls-4{fill:#9572a9;}.cls-12,.cls-17,.cls-19,.cls-27,.cls-28,.cls-29,.cls-32,.cls-4,.cls-9{mix-blend-mode:multiply;}.cls-12,.cls-32,.cls-4,.cls-9{opacity:0.5;}.cls-5{fill:url(#Безымянный_градиент_71);}.cls-6{fill:url(#Безымянный_градиент_82);}.cls-7{fill:url(#Безымянный_градиент_82-2);}.cls-8{fill:url(#Безымянный_градиент_82-3);}.cls-9{fill:#954da9;}.cls-10{fill:#7d2c4f;}.cls-11{fill:url(#Безымянный_градиент_45);}.cls-12{fill:#a97290;}.cls-13{fill:#811d42;}.cls-14{fill:url(#Безымянный_градиент_88);}.cls-15{fill:url(#Безымянный_градиент_88-2);}.cls-16{fill:#552245;}.cls-17,.cls-19,.cls-27,.cls-28{opacity:0.58;}.cls-17{fill:url(#Безымянный_градиент_58);}.cls-18{fill:#b24d61;}.cls-19{fill:url(#Безымянный_градиент_29);}.cls-20{fill:url(#Безымянный_градиент_14);}.cls-21{fill:url(#Безымянный_градиент_37);}.cls-22{fill:#933e4f;}.cls-23{fill:url(#Безымянный_градиент_69);}.cls-24{fill:url(#Безымянный_градиент_82-4);}.cls-25{fill:url(#Безымянный_градиент_49-2);}.cls-26{fill:url(#Безымянный_градиент_49-3);}.cls-27{fill:url(#Безымянный_градиент_243);}.cls-28{fill:url(#Безымянный_градиент_84);}.cls-29{opacity:0.3;fill:url(#Безымянный_градиент_29-2);}.cls-30,.cls-31{fill:#f5ffff;}.cls-30{mix-blend-mode:soft-light;}</style><linearGradient id="Безымянный_градиент_49" x1="112.78" y1="24.87" x2="112.78" y2="9.29" gradientUnits="userSpaceOnUse"><stop offset="0.01" stop-color="#651d4f"/><stop offset="1" stop-color="#93364f"/></linearGradient><linearGradient id="Безымянный_градиент_71" x1="90.17" y1="46.3" x2="90.17" y2="5.41" gradientUnits="userSpaceOnUse"><stop offset="0" stop-color="#f65258"/><stop offset="0.99" stop-color="#ff6b4f"/></linearGradient><linearGradient id="Безымянный_градиент_82" x1="89.59" y1="30.79" x2="89.59" y2="7.38" gradientUnits="userSpaceOnUse"><stop offset="0" stop-color="#ff8757"/><stop offset="0.98" stop-color="#ffce72"/></linearGradient><linearGradient id="Безымянный_градиент_82-2" x1="98.88" y1="26.09" x2="98.88" y2="5.41" xlink:href="#Безымянный_градиент_82"/><linearGradient id="Безымянный_градиент_82-3" x1="107.44" y1="26.33" x2="107.44" y2="7.58" xlink:href="#Безымянный_градиент_82"/><linearGradient id="Безымянный_градиент_45" x1="34.62" y1="166.47" x2="34.62" y2="143.05" gradientUnits="userSpaceOnUse"><stop offset="0.02" stop-color="#b5c4ec"/><stop offset="0.97" stop-color="#acb0eb"/></linearGradient><linearGradient id="Безымянный_градиент_88" x1="65.72" y1="154.24" x2="65.72" y2="64.3" gradientUnits="userSpaceOnUse"><stop offset="0.02" stop-color="#b5c4ec"/><stop offset="0.97" stop-color="#e1dbff"/></linearGradient><linearGradient id="Безымянный_градиент_88-2" x1="69.01" y1="78.83" x2="69.01" y2="19.39" xlink:href="#Безымянный_градиент_88"/><linearGradient id="Безымянный_градиент_58" x1="66.6" y1="154.23" x2="66.6" y2="73.41" gradientUnits="userSpaceOnUse"><stop offset="0.01" stop-color="#9775ba"/><stop offset="1" stop-color="#ffeaff"/></linearGradient><linearGradient id="Безымянный_градиент_29" x1="69.24" y1="78.83" x2="69.24" y2="18.72" gradientUnits="userSpaceOnUse"><stop offset="0.01" stop-color="#9775ba"/><stop offset="1" stop-color="#ffeadb"/></linearGradient><linearGradient id="Безымянный_градиент_14" x1="52.49" y1="51.95" x2="52.49" y2="41.28" gradientUnits="userSpaceOnUse"><stop offset="0" stop-color="#a6596e"/><stop offset="0.99" stop-color="#e2634f"/></linearGradient><linearGradient id="Безымянный_градиент_37" x1="88.03" y1="166.74" x2="88.03" y2="144" gradientUnits="userSpaceOnUse"><stop offset="0.02" stop-color="#b5c4ec"/><stop offset="0.97" stop-color="#dedbeb"/></linearGradient><linearGradient id="Безымянный_градиент_69" x1="37.84" y1="81.09" x2="95.89" y2="81.09" gradientUnits="userSpaceOnUse"><stop offset="0.01" stop-color="#ff6b4f"/><stop offset="1" stop-color="#f65258"/></linearGradient><linearGradient id="Безымянный_градиент_82-4" x1="89.76" y1="101.89" x2="89.76" y2="67.04" xlink:href="#Безымянный_градиент_82"/><linearGradient id="Безымянный_градиент_49-2" x1="76.24" y1="55.96" x2="76.24" y2="12.04" xlink:href="#Безымянный_градиент_49"/><linearGradient id="Безымянный_градиент_49-3" x1="86.47" y1="95.12" x2="102.16" y2="95.12" xlink:href="#Безымянный_градиент_49"/><linearGradient id="Безымянный_градиент_243" x1="61.92" y1="32.8" x2="100.53" y2="32.8" gradientUnits="userSpaceOnUse"><stop offset="0" stop-color="#ffeadb"/><stop offset="0.99" stop-color="#9775ba"/></linearGradient><linearGradient id="Безымянный_градиент_84" x1="86.47" y1="81.92" x2="86.47" y2="67.04" gradientUnits="userSpaceOnUse"><stop offset="0" stop-color="#ffeadb"/><stop offset="0.99" stop-color="#e575ba"/></linearGradient><linearGradient id="Безымянный_градиент_29-2" x1="65.37" y1="74.66" x2="65.37" y2="63.64" xlink:href="#Безымянный_градиент_29"/></defs><g class="cls-1"><g id="Слой_2" data-name="Слой 2"><g id="Снеговик"><path class="cls-2" d="M97.27,67c1.34-4.69,5.32-8.23,6.71-14.25S102.84,39.08,104,34s7.06-6.23,13.34-5.46,11.26-13,4.63-19.75-9.6-3.08-16.41-5.38S89-2.33,80.24,2.26s-15.85,5.13-21.7,7-4.42,7.1-7.24,12.54-4.73,8.7-4.6,12.36-5.86,4-8.86,10.55-1,13.5-1.22,20.95-5.16,17.82-19.9,36.2S-2.22,142.65,1,146s18-2,19-4.68-1.32-5.88,0-7.46,8.33,7.72,7.07,10.19-18,15.62-12.44,22.74c5.37,6.87,39.1,3.87,39.91,1.2s.32-6.85,1.47-8.16,9.22-2.61,10.86-.09-2.06,8.76,1.81,10.8,39.53,1.15,41.75-2.1-1.15-11.37-6.8-14.2.23-15.87,2.26-15.6-2.91,7.67-1.26,11.11,8.53,2.52,9.93,3.49,5.36,7.74,12.88,6.46-.48-21.19-4.26-25.84-4.51-8.4,0-13.47S117.32,94,108.08,81.92C104.05,76.67,96.72,68.94,97.27,67Z"/><path class="cls-3" d="M114.91,24.72h0a5.21,5.21,0,0,1-1.64.13c-7.75-.54-10.52-10.41-4.3-14.63,2.42-1.64,6.36-1,8.8,1.21a6.52,6.52,0,0,1,2,3.28C120.77,18.84,118.74,23.83,114.91,24.72Z"/><path class="cls-4" d="M114.9,24.72a5.21,5.21,0,0,1-1.64.13c-7.75-.54-10.52-10.41-4.3-14.63,2.42-1.64,6.36-1,8.8,1.21a7.27,7.27,0,0,0-5.69,4.39C110.39,19.82,112.35,23.67,114.9,24.72Z"/><path class="cls-5" d="M111.32,11.43c.16,4.1-3.16,14.36-4,14.86S104,25.13,104,25.13a108.28,108.28,0,0,0-4.69,12.44c-.28,1.1-.58,2.18-.9,3.18-.94,3.13-1.87,5.55-1.87,5.55a38.27,38.27,0,0,0-3.6-13.87,33.5,33.5,0,0,0-5.25-8c-4.06-4.57-10-8.54-18.66-10.35a45.53,45.53,0,0,1,18.61-8.2C98.43,4,109.34,8,111,10A2.49,2.49,0,0,1,111.32,11.43Z"/><path class="cls-6" d="M76.24,9.71s11,.32,16.91,4.91,8.47,16.17,8.47,16.17l1.32-3.23S100.35,16.28,95.44,12,81.88,7.38,81.88,7.38Z"/><path class="cls-7" d="M93.15,5.41s6.85,2.33,8.79,6,1.62,14.66,1.62,14.66l.42-1s1.4-9.68,0-13.09-6.69-6.45-6.69-6.45Z"/><path class="cls-8" d="M106.48,7.58A8,8,0,0,1,108,13.41c-.38,3.63-3.4,12.13-3.4,12.13l1.72.79s4.9-13.11,3.8-17A13.63,13.63,0,0,0,106.48,7.58Z"/><path class="cls-9" d="M111.32,11.43c.16,4.1-3.16,14.36-4,14.86S104,25.13,104,25.13a108.28,108.28,0,0,0-4.69,12.44c-.28,1.1-.58,2.18-.9,3.18l-5.47-8.32-5.25-8L86.32,22.4,75,13.81s9,1.49,14,4.91,7.53,7.21,8.29,7.13,6.31-6.32,7.08-13.24c0,0,2.31,7.37,2.88,10S111,14.94,111.32,11.43Z"/><path class="cls-10" d="M28.51,98.89s-12.73,16.49-17.57,25.54a88.7,88.7,0,0,0-7.15,18.62H6s5.23-9.82,6.12-9.94,2.17,6.5,2.17,6.5l1.9-1.15s-1.67-11.73,0-13.9S18.72,121,18.72,121l.76-3.42L25,110.73Z"/><path class="cls-11" d="M48.79,154.24s2.39,7.59,1.62,9.51-7.37,3-13.58,2.68c-5.39-.25-13.57.15-16.84-.74l-.1,0a2.72,2.72,0,0,1-1-.49c-1.82-1.53-1.54-4.59,1.14-8.8h0l.07-.1.06-.07.07-.09c2.9-4.06,12.42-6.62,12.42-6.62a7.72,7.72,0,0,1,.32-5.09,6.91,6.91,0,0,1,.76-1.34h0l.14.15a9.76,9.76,0,0,0,1.39,1.28c4.85,3.87,15.62,8,16.28,8.27h0A2.85,2.85,0,0,1,48.79,154.24Z"/><path class="cls-12" d="M48.79,154.24s2.39,7.59,1.62,9.51-7.37,3-13.58,2.68c-5.39-.25-13.57.15-16.84-.74,3.33.61,12.17,0,18.42-1.13h.05c3.78-.7,6.62-1.59,6.69-2.53.19-2.48-8.51-9.66-15.11-10.13a11.63,11.63,0,0,0-9.84,4.22c2.9-4.06,12.42-6.62,12.42-6.62a7.72,7.72,0,0,1,.32-5.09,6.91,6.91,0,0,1,.76-1.34h0l.14.15a9.76,9.76,0,0,0,1.39,1.28c4.85,3.87,15.62,8,16.28,8.27h0A2.85,2.85,0,0,1,48.79,154.24Z"/><path class="cls-13" d="M93.9,72.8s18.35,22.55,24,42.26c0,0-4.68,6.35-11.1,5.28S93.9,72.8,93.9,72.8Z"/><path class="cls-10" d="M117.87,134.64s3.52,6.23,4.8,9.36-.25,9.19-.25,9.19Z"/><path class="cls-14" d="M107.23,114.87a44.34,44.34,0,0,1-3.07,15.35c-4.47,11.05-13.77,19.16-27.92,22.52a54.67,54.67,0,0,1-12.36,1.5,50,50,0,0,1-12.33-1.48h0a38.9,38.9,0,0,1-16.28-8.27c-.48-.41-.94-.83-1.39-1.28l-.15-.14a30.73,30.73,0,0,1-3.35-3.94,30.23,30.23,0,0,1-2.9-4.93,33.38,33.38,0,0,1-1.5-3.86c-5-15.42,1.77-31.88,7.25-40.52,1.08-1.7,2.22-3.51,3.42-5.34a125.86,125.86,0,0,1,8-11.06c3.3-4,6.67-7.21,9.84-8.48a7.75,7.75,0,0,1,2-.46c8.14-1,29.61,2.76,32.09,4.7a3.74,3.74,0,0,1,.33.3,55.55,55.55,0,0,1,6.19,8.9C100.69,87.78,107.6,102.62,107.23,114.87Z"/><path class="cls-4" d="M107.23,114.87a44.34,44.34,0,0,1-3.07,15.35l0,0c-.92-14.22-15.75-30.3-20.82-31.35s-10.65,2.08-25,0S36.62,84.47,36.62,84.47a125.86,125.86,0,0,1,8-11.06c3.3-4,6.67-7.21,9.84-8.48a7.75,7.75,0,0,1,2-.46l32.42,5a55.55,55.55,0,0,1,6.19,8.9C100.69,87.78,107.6,102.62,107.23,114.87Z"/><path class="cls-15" d="M91.83,66C86.66,72.87,69.55,78.52,62.75,78.8s-11-1.33-15.69-8.6a29.9,29.9,0,0,1-4.31-9.92,17.36,17.36,0,0,1,0-8.07c.7-2.7,3.38-6.41,5.77-10.32A30.78,30.78,0,0,0,52.23,34a17.48,17.48,0,0,1,1.28-3.44l0-.08v0h0A20.4,20.4,0,0,1,67.3,19.85l.65-.13a19.21,19.21,0,0,1,12.53,1.9,27.63,27.63,0,0,1,11.16,11l1,2A25.81,25.81,0,0,1,94.8,41C95.92,47,97,59.1,91.83,66Z"/><path class="cls-16" d="M53.86,101.22c-2.13.37-3.93,3-3.54,4.85s6.5,1.05,7.74,0S55.57,100.92,53.86,101.22Z"/><path class="cls-16" d="M49.07,121c-.61,1.1-.67,3.75,0,4.32a3.63,3.63,0,0,0,5.22-2.16C55.39,119.84,49.64,120,49.07,121Z"/><path class="cls-17" d="M107.23,114.87c-.58,18.75-10.91,33.1-31,37.87s-41.14-2.1-48.79-18.55a33.38,33.38,0,0,1-1.5-3.86c7.76,12.72,15.64,16.65,29.88,18.21,17.47,1.92,37.44-12,39.9-22.81s-7.25-25.45-12.41-26.84-14.31,1.63-25,0c-14.2-2.17-21.69-14.42-21.69-14.42a125.86,125.86,0,0,1,8-11.06l7.52,1.27,43,3.69C100.69,87.78,107.6,102.62,107.23,114.87Z"/><path class="cls-16" d="M52.13,140.41c-.16,1.83.39,3.29,1.44,3.51s6.41-.74,5.64-3.51S52.31,138.35,52.13,140.41Z"/><path class="cls-16" d="M74.45,39.36a4.82,4.82,0,0,0-2.1,4.34c.25,1.65,1.91,2.87,2.81,2.55s2.42-3.89,2.16-5.23A2.49,2.49,0,0,0,74.45,39.36Z"/><path class="cls-16" d="M54.68,36.81c-1.25-.14-3.06,1.63-3.31,3s.28,1.84.83,2.93c.37.73,3-1.71,3.44-3C56.15,38.28,55.56,36.9,54.68,36.81Z"/><path class="cls-18" d="M51.3,53.84s2.46,4.21,6.09,4.68,10.53-4.68,10.53-4.68-5.26,5.26-9.57,5.64S51.3,53.84,51.3,53.84Z"/><path class="cls-19" d="M91.83,66C86.66,72.87,69.55,78.52,62.75,78.8s-11-1.33-15.69-8.6a29.9,29.9,0,0,1-4.31-9.92s7.72,12.11,22,11.09S88.48,60.08,84.34,54.6,73.26,45.46,63.68,42.93s-14.42-.51-15.15-1A30.78,30.78,0,0,0,52.23,34a17.48,17.48,0,0,1,1.28-3.44l0-.08v0h0l5.24-11.75,8.49,1.13,13.18,1.77,5.84.78,5.32,10.23,1,2A25.81,25.81,0,0,1,94.8,41C95.92,47,97,59.1,91.83,66Z"/><path class="cls-20" d="M58.77,41.53c4.46.93,3.95,8.8,0,10.2s-15.05-4.4-15.69-7.08S54.81,40.7,58.77,41.53Z"/><path class="cls-21" d="M104.36,165.81l-.07.05c-.92.5-10.51.79-18.94.87-6.35,0-12,0-12.94-.25-2.11-.53,0-9.14,0-9.14a6.33,6.33,0,0,1-.93-3.68c.27-1.77,11.94-11.25,22.5-9.43,0,0,.82,5.36-1.1,8.32l.08,0,.34.08.38.1.22.06a25.76,25.76,0,0,1,7.49,3.38C105,158.77,104.84,164.91,104.36,165.81Z"/><path class="cls-4" d="M104.36,165.81l-.07.05c-1.61.86-29.82,1.13-31.88.62s0-9.14,0-9.14a6.33,6.33,0,0,1-.93-3.68c.27-1.77,11.94-11.25,22.5-9.43,0,0,.82,5.36-1.1,8.32,0,0,.39.08,1,.26-8.18-1-20.44,8-16.55,10.56S104.36,165.81,104.36,165.81Z"/><path class="cls-22" d="M98.18,104.92s.38-2.94,2.29-3.7c0,0,10.08,15,12.63,26.4,0,0,2.68.89,2.93,3.06,0,0,5,8.43,6.64,24.69H120s-3.45-11.43-5-12.32-4.59,6.51-4.59,6.51l-2-1.4s2.55-10.21,2-14.8S98.18,104.92,98.18,104.92Z"/><path class="cls-23" d="M95.73,79.48c-1.52,2.47-4.76,5.34-8.85,8-.55.36-1.13.72-1.72,1.07C77.27,93.26,67,97,59.61,95.87,47.7,94.08,38.3,82,38.3,82A4.73,4.73,0,0,1,38,78.83a5.22,5.22,0,0,1,.34-1,10.51,10.51,0,0,0,1.73-1,6.4,6.4,0,0,0,2.25-2.39,41,41,0,0,0,1.78-5.52c.41-1.57.72-2.81.72-2.81S47.35,76,60.27,76.89c5.53.37,11.76-1.21,17.08-3.13l1.62-.6,1.48-.59A85.05,85.05,0,0,0,89.93,68,20.22,20.22,0,0,1,92,72.11c.48,1.62,3.36,4.11,3.71,4.49S95.73,79.48,95.73,79.48Z"/><path class="cls-24" d="M102.16,94.49v0c-.15.46-2.9,8-13.29,7.34,0,0-.9-3.86-2.39-9-.39-1.36-.84-2.81-1.3-4.29v0h0A86.9,86.9,0,0,0,79,73.16l0-.09-1.57.69,1.86-2.7S86,69.72,89.44,67A52.57,52.57,0,0,1,101,88.34,46.16,46.16,0,0,1,102.16,94.49Z"/><path class="cls-25" d="M98,48.57c-.42,1.82.38,3.45.48,4.4a1.32,1.32,0,0,1-.42.86A14.75,14.75,0,0,1,95.43,56s-1.81-13.17-5.67-18.19c-4.85-6.31-14.48-11.2-22.41-11.92a21.25,21.25,0,0,0-13.11,2.83l-.68,1.8S51.8,28.77,52,28,56.3,24.33,57.82,21s2.94-7.8,4.1-8.27,17.89-3.47,27.84,7.69c7.46,8.36,10.88,22.29,10.77,23.63S98.38,46.75,98,48.57Z"/><path class="cls-26" d="M102.16,94.49v0c-.15.46-2.9,8-13.29,7.34,0,0-.9-3.86-2.39-9h0s.86-1.71,1.56-2,10-.86,12.92-2.55A46.16,46.16,0,0,1,102.16,94.49Z"/><path class="cls-4" d="M98,53.83A14.75,14.75,0,0,1,95.43,56s-1.81-13.17-5.67-18.19c-4.85-6.31-14.48-11.2-22.41-11.92a21.25,21.25,0,0,0-13.11,2.83l-.68,1.8S51.8,28.77,52,28a23.14,23.14,0,0,1,20.37-4.42C86.13,27,94.67,35.66,98,53.83Z"/><path class="cls-27" d="M100.53,44.08c-.09,1.34-2.15,2.67-2.58,4.49,0,0-3.34-14.12-13.77-21.52-11.87-8.41-22.39-6.69-22.26-7.66s11.84-4.79,22.17,0S100.53,44.08,100.53,44.08Z"/><path class="cls-9" d="M107.33,26.29c-1,.57-3.35-1.16-3.35-1.16a38.29,38.29,0,0,0,.38-12.52S107.76,22.08,107.33,26.29Z"/><path class="cls-4" d="M53.86,29.67s5.94-3.4,16.78-1.18S94,46.49,95,58.49L95.43,56s1.13-23.24-18.08-30.83c-16-6.33-23.11,3.55-23.11,3.55Z"/><path class="cls-4" d="M43.08,44.65s12.29,4.69,16.53,3.54,1-5.71,1-5.71,3.77,4.64,2.57,8.8-5.77,4.51-8.51,2c-2-1.86-2.9-2.71-2.9-2.71S44.74,48,43.08,44.65Z"/><path class="cls-9" d="M102.15,94.51c-.15.46-2.9,8-13.29,7.34,0,0-1.44-6.19-3.69-13.28v0h0C77.27,93.26,67,97,59.61,95.87,47.7,94.08,38.3,82,38.3,82A4.73,4.73,0,0,1,38,78.83S48.13,91,59.61,93.53s21.79-4.11,21.62-6A14.46,14.46,0,0,0,79.58,83s-11.57,4-22,3.41S40,76.83,40,76.83l2.25-2.39s5.9,9.7,14.45,11.35,22.85-5.55,22.85-5.55-2.48-4.85-2.23-4.85-10.26,6.06-19.54,4.08S44.06,68.92,44.06,68.92c.41-1.57.72-2.81.72-2.81S47.35,76,60.27,76.89c5.53.37,11.76-1.21,17.08-3.13l1.86-2.7a9,9,0,0,1,1.24,1.51c2.12,3.15,4.5,9.26,6.43,14.9,2.25,6.48,3.9,12.34,3.9,12.34C95,100.76,101.83,94.79,102.15,94.51Z"/><path class="cls-28" d="M79.21,71.06s4.84,1,10.55,8.7,4.94-7-.32-12.72C89.44,67,87.13,68.94,79.21,71.06Z"/><path class="cls-29" d="M48.27,66.11S54,73,61.92,74.48s18.67-7,20.54-10.84c0,0-7,8.44-20.54,7.76A24.83,24.83,0,0,1,48.27,66.11Z"/><path class="cls-9" d="M76.24,74.15s3.53,4.27,3.34,6.09l-10,4.23,10-1.46A9.21,9.21,0,0,1,84,89.21l1.16-.67S81.23,76.79,79,73.16Z"/><path class="cls-4" d="M93.68,152.75l.22.06a22,22,0,0,0-12,3.42c-5.61,3.72-6.38,6.78-6.32,7.93s9.9,2.56,9.9,2.56h-.14c-6.35,0-12,0-12.94-.25-2.11-.53,0-9.14,0-9.14a6.33,6.33,0,0,1-.93-3.68c.27-1.77,11.94-11.25,22.5-9.43,0,0-11.37.55-16.08,4.63s-1.28,6.26,2.29,5.9,8.73-2.4,12.69-2.21l.08,0,.34.08Z"/><path class="cls-4" d="M63.9,154.23h0a50,50,0,0,1-12.33-1.48,2.85,2.85,0,0,1-2.76,1.48s2.39,7.59,1.62,9.51-7.37,3-13.58,2.68c-5.39-.25-13.57.15-16.84-.74,0,0,10.65-.2,18.42-1.13h.05c3.77-.45,6.85-1.07,7.68-1.92,2.53-2.6-5.51-9.74-13.29-13,1.58.63,10.84,4.25,11.95,3.68s-9.15-7.13-11.86-8.86a6.91,6.91,0,0,1,.76-1.34,30.73,30.73,0,0,1-3.35-3.94A66.79,66.79,0,0,0,63.9,154.23Z"/><path class="cls-4" d="M49.07,125.29a4.63,4.63,0,0,0,3.59-1.05c1.71-1.42.29-3.63.29-3.63a13.34,13.34,0,0,1,2.68,1.29c.71.57.48,3.78-1.34,4.45A5.12,5.12,0,0,1,49.07,125.29Z"/><path class="cls-4" d="M55.69,101.89s1.07,1.78.31,2.79-4.3,2.17-5.52,1.73c0,0,1.31,2.1,2.06,2.29s6.34.56,7.49-1.54S55.69,101.89,55.69,101.89Z"/><path class="cls-4" d="M52.11,141.27a3,3,0,0,0,2.32,1c1.67.1,4.47-1.12,4.34-2.71,0,0,1.64,1.33,1.45,2.72s-4.26,4-6.36,3.58S52.11,141.27,52.11,141.27Z"/><path class="cls-30" d="M44.58,43.6s8.34-1.69,14-1.12A21,21,0,0,0,44.58,43.6Z"/><path class="cls-30" d="M55.1,25.23s3.67-2.67,4.46-4.91,2-5.48,4.59-6.56,14.81-.55,21.66,5a24.4,24.4,0,0,0-13.4-6.18c-8.06-.86-10.3.13-10.87,1s-2.2,6.51-3.32,7.94S55.1,25.23,55.1,25.23Z"/><path class="cls-30" d="M73.66,11.43s8-4.14,15.93-5.1,18.54,2.23,18.54,2.23a112,112,0,0,0-18-.54A56.22,56.22,0,0,0,73.66,11.43Z"/><path class="cls-30" d="M8.13,132.66s1.45-6.74,8-15.93,9.15-12.55,9.15-12.55-6.31,9.44-9.66,14.7S8.13,132.66,8.13,132.66Z"/><path class="cls-30" d="M102.64,107.16s7.56,14.69,10,21.86C112.69,129,110.92,114.92,102.64,107.16Z"/><path class="cls-30" d="M117.76,12.21a11.39,11.39,0,0,1,0,6.88c-1.25,3.18-2.87,3.92-2.87,3.92s4-1.31,4.75-4.54S117.76,12.21,117.76,12.21Z"/><path class="cls-31" d="M85.16,156.57a14.86,14.86,0,0,1,11.3-1.2,9.41,9.41,0,0,1,7.14,8s.73-6.52-6.44-8.59A13.84,13.84,0,0,0,85.16,156.57Z"/><path class="cls-31" d="M19,160.91s1.53-6.15,6.26-7.59a12.67,12.67,0,0,1,8.08,0S24.65,152.11,19,160.91Z"/><path class="cls-31" d="M27.26,128.29s-2.62-21.55,9.36-40.59C36.62,87.7,22.48,98.87,27.26,128.29Z"/><path class="cls-31" d="M45.34,49.11s-2.75,4.16-2,12C43.33,61.09,40.56,53.47,45.34,49.11Z"/><path class="cls-30" d="M84,68.38s7.91-5,9.16-13.5C93.15,54.88,95.34,64.66,84,68.38Z"/><path class="cls-30" d="M94.39,142.78s10-9.4,7.76-18.2A51.44,51.44,0,0,1,94.39,142.78Z"/><path class="cls-30" d="M100.84,84.47s9.46,9.77,16.33,30.16Z"/><path class="cls-32" d="M98.18,104.92s7.48,16.87,6,25.3a78.3,78.3,0,0,0,2.24-7.69S99.4,107.07,98.18,104.92Z"/><path class="cls-32" d="M44.61,88.34a32.25,32.25,0,0,0,17,9c10.36,1.7,24.17-6.71,24.17-6.71l-.63-2.11S72.86,96.44,61.7,96A24.33,24.33,0,0,1,44.61,88.34Z"/><circle class="cls-2" cx="42.32" cy="115.44" r="1.62"/><path class="cls-2" d="M83.22,127.92a.38.38,0,0,1-.76,0,.38.38,0,1,1,.76,0Z"/><path class="cls-2" d="M58.92,64.3a.38.38,0,0,1-.75,0,.38.38,0,1,1,.75,0Z"/><path class="cls-2" d="M77.35,110.79a.37.37,0,1,1-.37-.37A.37.37,0,0,1,77.35,110.79Z"/><path class="cls-2" d="M41.67,134.16a.49.49,0,1,1-.49-.48A.49.49,0,0,1,41.67,134.16Z"/><circle class="cls-2" cx="67.45" cy="138.38" r="1.23"/><path class="cls-2" d="M62.34,118.74a.65.65,0,1,1-.64-.65A.65.65,0,0,1,62.34,118.74Z"/><circle class="cls-2" cx="86.46" cy="118.76" r="0.67"/><path class="cls-2" d="M38.91,96.35a.28.28,0,0,1-.28.28.29.29,0,1,1,0-.57A.28.28,0,0,1,38.91,96.35Z"/><path class="cls-2" d="M31.45,120.41a1,1,0,1,1-1-1A1,1,0,0,1,31.45,120.41Z"/><path class="cls-2" d="M74.76,112.83a1.66,1.66,0,1,1-1.66-1.66A1.67,1.67,0,0,1,74.76,112.83Z"/><path class="cls-2" d="M77.9,61.8a1.66,1.66,0,1,1-1.66-1.66A1.66,1.66,0,0,1,77.9,61.8Z"/><path class="cls-2" d="M81.23,58.92a.62.62,0,0,1-.62.62.62.62,0,0,1-.62-.62.61.61,0,0,1,.62-.62A.62.62,0,0,1,81.23,58.92Z"/><path class="cls-2" d="M71.94,53.05a.25.25,0,0,1-.5,0,.25.25,0,1,1,.5,0Z"/></g></g></g></svg>